<?xml version="1.0" encoding="iso-8859-1"?>
<!-- Generator: Adobe Illustrator 17.1.0, SVG Export Plug-In . SVG Version: 6.00 Build 0)  -->
<!DOCTYPE svg PUBLIC "-//W3C//DTD SVG 1.1//EN" "http://www.w3.org/Graphics/SVG/1.1/DTD/svg11.dtd">
<svg version="1.1" id="Capa_1" xmlns="http://www.w3.org/2000/svg" xmlns:xlink="http://www.w3.org/1999/xlink" x="0px" y="0px"
	 viewBox="0 0 465 465" style="enable-background:new 0 0 465 465;" xml:space="preserve">
<g>
	<path d="M337.5,110h-56.464c-4.142,0-7.5,3.357-7.5,7.5s3.358,7.5,7.5,7.5H337.5c43.541,0,78.964,35.423,78.964,78.964v137.021
		h-195V203.964c0-33.077-17.182-62.215-43.088-78.964h42.659c4.142,0,7.5-3.357,7.5-7.5s-3.358-7.5-7.5-7.5H127.5
		c-51.812,0-93.964,42.152-93.964,93.964v144.521c0,4.143,3.358,7.5,7.5,7.5h165.429V457.5c0,4.143,3.358,7.5,7.5,7.5
		s7.5-3.357,7.5-7.5V355.985h22.071V457.5c0,4.143,3.358,7.5,7.5,7.5s7.5-3.357,7.5-7.5V355.985h165.429c4.142,0,7.5-3.357,7.5-7.5
		V203.964C431.464,152.152,389.312,110,337.5,110z M48.536,203.964C48.536,160.423,83.959,125,127.5,125
		s78.964,35.423,78.964,78.964v137.021H48.536V203.964z"/>
	<path d="M251.036,283.725c4.142,0,7.5-3.357,7.5-7.5V73h67.695c9.098,0,16.5-7.402,16.5-16.5v-40c0-9.098-7.402-16.5-16.5-16.5
		h-75.195c-4.142,0-7.5,3.357-7.5,7.5v268.725C243.536,280.367,246.894,283.725,251.036,283.725z M327.73,16.5v40
		c0,0.827-0.673,1.5-1.5,1.5h-67.695V15h67.695C327.058,15,327.73,15.673,327.73,16.5z"/>
	<path d="M127.5,160c-4.142,0-7.5,3.357-7.5,7.5v23c0,4.143,3.358,7.5,7.5,7.5s7.5-3.357,7.5-7.5v-23
		C135,163.357,131.642,160,127.5,160z"/>
</g>
<g>
</g>
<g>
</g>
<g>
</g>
<g>
</g>
<g>
</g>
<g>
</g>
<g>
</g>
<g>
</g>
<g>
</g>
<g>
</g>
<g>
</g>
<g>
</g>
<g>
</g>
<g>
</g>
<g>
</g>
</svg>
